<mxfile host="app.diagrams.net" agent="Mozilla/5.0 (Windows NT 10.0; Win64; x64) AppleWebKit/537.36 (KHTML, like Gecko) Chrome/131.0.0.0 Safari/537.36" version="25.0.3">
  <diagram name="Page-1" id="5iVsPcD9965XP5peH188">
    <mxGraphModel dx="2049" dy="1066" grid="1" gridSize="10" guides="1" tooltips="1" connect="1" arrows="1" fold="1" page="1" pageScale="1" pageWidth="850" pageHeight="1100" math="0" shadow="0">
      <root>
        <mxCell id="0" />
        <mxCell id="1" parent="0" />
        <mxCell id="G2SgoPYQ0qABD0LT8wLM-7" style="edgeStyle=orthogonalEdgeStyle;rounded=0;orthogonalLoop=1;jettySize=auto;html=1;entryX=0.5;entryY=0;entryDx=0;entryDy=0;" edge="1" parent="1" source="G2SgoPYQ0qABD0LT8wLM-1" target="G2SgoPYQ0qABD0LT8wLM-3">
          <mxGeometry relative="1" as="geometry" />
        </mxCell>
        <mxCell id="G2SgoPYQ0qABD0LT8wLM-1" value="&lt;font style=&quot;font-size: 24px;&quot;&gt;start&lt;/font&gt;" style="strokeWidth=2;html=1;shape=mxgraph.flowchart.start_1;whiteSpace=wrap;" vertex="1" parent="1">
          <mxGeometry x="375" y="40" width="100" height="60" as="geometry" />
        </mxCell>
        <mxCell id="G2SgoPYQ0qABD0LT8wLM-10" style="edgeStyle=orthogonalEdgeStyle;rounded=0;orthogonalLoop=1;jettySize=auto;html=1;entryX=0.5;entryY=0;entryDx=0;entryDy=0;" edge="1" parent="1" source="G2SgoPYQ0qABD0LT8wLM-2" target="G2SgoPYQ0qABD0LT8wLM-6">
          <mxGeometry relative="1" as="geometry" />
        </mxCell>
        <mxCell id="G2SgoPYQ0qABD0LT8wLM-15" style="edgeStyle=orthogonalEdgeStyle;rounded=0;orthogonalLoop=1;jettySize=auto;html=1;entryX=0.5;entryY=0;entryDx=0;entryDy=0;" edge="1" parent="1" source="G2SgoPYQ0qABD0LT8wLM-2" target="G2SgoPYQ0qABD0LT8wLM-13">
          <mxGeometry relative="1" as="geometry" />
        </mxCell>
        <mxCell id="G2SgoPYQ0qABD0LT8wLM-2" value="for (i &amp;lt; n, i++)" style="rhombus;whiteSpace=wrap;html=1;" vertex="1" parent="1">
          <mxGeometry x="354" y="220" width="142" height="70" as="geometry" />
        </mxCell>
        <mxCell id="G2SgoPYQ0qABD0LT8wLM-9" style="edgeStyle=orthogonalEdgeStyle;rounded=0;orthogonalLoop=1;jettySize=auto;html=1;entryX=0.5;entryY=0;entryDx=0;entryDy=0;" edge="1" parent="1" source="G2SgoPYQ0qABD0LT8wLM-3" target="G2SgoPYQ0qABD0LT8wLM-2">
          <mxGeometry relative="1" as="geometry" />
        </mxCell>
        <mxCell id="G2SgoPYQ0qABD0LT8wLM-3" value="input n" style="shape=parallelogram;perimeter=parallelogramPerimeter;whiteSpace=wrap;html=1;fixedSize=1;" vertex="1" parent="1">
          <mxGeometry x="349" y="150" width="152" height="30" as="geometry" />
        </mxCell>
        <mxCell id="G2SgoPYQ0qABD0LT8wLM-4" value="RealData[6] = {7, 4, 1, 8, 3, 2}" style="rounded=1;whiteSpace=wrap;html=1;absoluteArcSize=1;arcSize=14;strokeWidth=2;" vertex="1" parent="1">
          <mxGeometry x="680" y="330" width="180" height="40" as="geometry" />
        </mxCell>
        <mxCell id="G2SgoPYQ0qABD0LT8wLM-5" value="&lt;font style=&quot;font-size: 24px;&quot;&gt;end&lt;/font&gt;" style="strokeWidth=2;html=1;shape=mxgraph.flowchart.start_1;whiteSpace=wrap;" vertex="1" parent="1">
          <mxGeometry x="375" y="960" width="100" height="60" as="geometry" />
        </mxCell>
        <mxCell id="G2SgoPYQ0qABD0LT8wLM-11" style="edgeStyle=orthogonalEdgeStyle;rounded=0;orthogonalLoop=1;jettySize=auto;html=1;entryX=1;entryY=1;entryDx=0;entryDy=0;" edge="1" parent="1" source="G2SgoPYQ0qABD0LT8wLM-6" target="G2SgoPYQ0qABD0LT8wLM-2">
          <mxGeometry relative="1" as="geometry" />
        </mxCell>
        <mxCell id="G2SgoPYQ0qABD0LT8wLM-6" value="input arr[i]" style="shape=parallelogram;perimeter=parallelogramPerimeter;whiteSpace=wrap;html=1;fixedSize=1;" vertex="1" parent="1">
          <mxGeometry x="528" y="310" width="152" height="30" as="geometry" />
        </mxCell>
        <mxCell id="G2SgoPYQ0qABD0LT8wLM-16" style="edgeStyle=orthogonalEdgeStyle;rounded=0;orthogonalLoop=1;jettySize=auto;html=1;entryX=0.5;entryY=0;entryDx=0;entryDy=0;" edge="1" parent="1" source="G2SgoPYQ0qABD0LT8wLM-13" target="G2SgoPYQ0qABD0LT8wLM-14">
          <mxGeometry relative="1" as="geometry" />
        </mxCell>
        <mxCell id="G2SgoPYQ0qABD0LT8wLM-13" value="qsort(arr, N, sizeof(int),compare" style="rounded=1;whiteSpace=wrap;html=1;absoluteArcSize=1;arcSize=14;strokeWidth=2;" vertex="1" parent="1">
          <mxGeometry x="335" y="410" width="180" height="40" as="geometry" />
        </mxCell>
        <mxCell id="G2SgoPYQ0qABD0LT8wLM-20" style="edgeStyle=orthogonalEdgeStyle;rounded=0;orthogonalLoop=1;jettySize=auto;html=1;entryX=0.5;entryY=0;entryDx=0;entryDy=0;" edge="1" parent="1" source="G2SgoPYQ0qABD0LT8wLM-14" target="G2SgoPYQ0qABD0LT8wLM-17">
          <mxGeometry relative="1" as="geometry" />
        </mxCell>
        <mxCell id="G2SgoPYQ0qABD0LT8wLM-14" value="output&lt;div&gt;&quot;Unique value :&quot;&lt;/div&gt;" style="shape=parallelogram;perimeter=parallelogramPerimeter;whiteSpace=wrap;html=1;fixedSize=1;" vertex="1" parent="1">
          <mxGeometry x="349" y="500" width="152" height="30" as="geometry" />
        </mxCell>
        <mxCell id="G2SgoPYQ0qABD0LT8wLM-21" style="edgeStyle=orthogonalEdgeStyle;rounded=0;orthogonalLoop=1;jettySize=auto;html=1;entryX=0.5;entryY=0;entryDx=0;entryDy=0;" edge="1" parent="1" source="G2SgoPYQ0qABD0LT8wLM-17" target="G2SgoPYQ0qABD0LT8wLM-18">
          <mxGeometry relative="1" as="geometry" />
        </mxCell>
        <mxCell id="G2SgoPYQ0qABD0LT8wLM-17" value="for (i &amp;lt; n, i++)" style="rhombus;whiteSpace=wrap;html=1;" vertex="1" parent="1">
          <mxGeometry x="354" y="570" width="142" height="70" as="geometry" />
        </mxCell>
        <mxCell id="G2SgoPYQ0qABD0LT8wLM-22" style="edgeStyle=orthogonalEdgeStyle;rounded=0;orthogonalLoop=1;jettySize=auto;html=1;entryX=0.5;entryY=0;entryDx=0;entryDy=0;" edge="1" parent="1" source="G2SgoPYQ0qABD0LT8wLM-18" target="G2SgoPYQ0qABD0LT8wLM-19">
          <mxGeometry relative="1" as="geometry" />
        </mxCell>
        <mxCell id="G2SgoPYQ0qABD0LT8wLM-24" style="edgeStyle=orthogonalEdgeStyle;rounded=0;orthogonalLoop=1;jettySize=auto;html=1;entryX=1;entryY=1;entryDx=0;entryDy=0;" edge="1" parent="1" source="G2SgoPYQ0qABD0LT8wLM-18" target="G2SgoPYQ0qABD0LT8wLM-17">
          <mxGeometry relative="1" as="geometry" />
        </mxCell>
        <mxCell id="G2SgoPYQ0qABD0LT8wLM-18" value="if ((i == 0 || arr[i] != arr[i - 1]) &amp;amp;&amp;amp; (i == n -1 || arr[i] != arr[i + 1]" style="rhombus;whiteSpace=wrap;html=1;" vertex="1" parent="1">
          <mxGeometry x="529" y="650" width="251" height="150" as="geometry" />
        </mxCell>
        <mxCell id="G2SgoPYQ0qABD0LT8wLM-23" style="edgeStyle=orthogonalEdgeStyle;rounded=0;orthogonalLoop=1;jettySize=auto;html=1;entryX=1;entryY=1;entryDx=0;entryDy=0;" edge="1" parent="1" source="G2SgoPYQ0qABD0LT8wLM-19" target="G2SgoPYQ0qABD0LT8wLM-18">
          <mxGeometry relative="1" as="geometry" />
        </mxCell>
        <mxCell id="G2SgoPYQ0qABD0LT8wLM-19" value="output arr[i]" style="shape=parallelogram;perimeter=parallelogramPerimeter;whiteSpace=wrap;html=1;fixedSize=1;" vertex="1" parent="1">
          <mxGeometry x="790" y="850" width="152" height="30" as="geometry" />
        </mxCell>
        <mxCell id="G2SgoPYQ0qABD0LT8wLM-25" style="edgeStyle=orthogonalEdgeStyle;rounded=0;orthogonalLoop=1;jettySize=auto;html=1;entryX=0.5;entryY=0;entryDx=0;entryDy=0;entryPerimeter=0;" edge="1" parent="1" source="G2SgoPYQ0qABD0LT8wLM-17" target="G2SgoPYQ0qABD0LT8wLM-5">
          <mxGeometry relative="1" as="geometry" />
        </mxCell>
        <mxCell id="G2SgoPYQ0qABD0LT8wLM-26" value="&lt;font style=&quot;font-size: 16px;&quot;&gt;compare( *a, *b)&lt;/font&gt;" style="strokeWidth=2;html=1;shape=mxgraph.flowchart.start_1;whiteSpace=wrap;" vertex="1" parent="1">
          <mxGeometry x="1030" y="40" width="150" height="80" as="geometry" />
        </mxCell>
        <mxCell id="G2SgoPYQ0qABD0LT8wLM-27" value="&lt;font style=&quot;font-size: 16px;&quot;&gt;return (*(int *) a - *(int *) b&lt;/font&gt;" style="strokeWidth=2;html=1;shape=mxgraph.flowchart.start_1;whiteSpace=wrap;" vertex="1" parent="1">
          <mxGeometry x="1007.5" y="190" width="195" height="80" as="geometry" />
        </mxCell>
        <mxCell id="G2SgoPYQ0qABD0LT8wLM-28" style="edgeStyle=orthogonalEdgeStyle;rounded=0;orthogonalLoop=1;jettySize=auto;html=1;entryX=0.5;entryY=0;entryDx=0;entryDy=0;entryPerimeter=0;" edge="1" parent="1" source="G2SgoPYQ0qABD0LT8wLM-26" target="G2SgoPYQ0qABD0LT8wLM-27">
          <mxGeometry relative="1" as="geometry" />
        </mxCell>
      </root>
    </mxGraphModel>
  </diagram>
</mxfile>
